<svg width="130" height="25" viewBox="0 0 130 25" fill="none" xmlns="http://www.w3.org/2000/svg">
<g clip-path="url(#clip0_1_21)">
<rect x="4.39209" y="7.75867" width="3.51351" height="5.17241" fill="#FBB800"/>
<path d="M7.74911 8.27529H5.05615V11.7004H6.68739C7.11893 11.709 7.48686 12.0992 7.74911 12.4024V8.27529ZM6.98389 0.224751L12.5283 5.34182C12.6129 5.41909 12.6803 5.51255 12.7262 5.61639C12.7722 5.72023 12.7958 5.83221 12.7955 5.94535V12.5296C12.7955 12.7516 12.7053 12.9645 12.5447 13.1214C12.3841 13.2784 12.1663 13.3665 11.9393 13.3665H4.20775C4.09542 13.3668 3.98415 13.3453 3.88037 13.3033C3.77659 13.2613 3.68235 13.1996 3.60311 13.1217C3.52386 13.0439 3.46117 12.9515 3.41866 12.8499C3.37615 12.7483 3.35466 12.6394 3.35544 12.5296V7.44508C3.35544 7.33577 3.3775 7.22753 3.42035 7.12657C3.46321 7.0256 3.52602 6.93389 3.60519 6.85668C3.68436 6.77948 3.77834 6.71829 3.88173 6.67663C3.98513 6.63498 4.09592 6.61366 4.20775 6.61392H8.59849C8.82402 6.61392 9.04031 6.70149 9.19979 6.85736C9.35926 7.01323 9.44885 7.22464 9.44885 7.44508V11.7004H11.1046V6.31263L6.40753 1.97316L1.69974 6.30689V15.0518H11.953C12.1787 15.0518 12.3953 15.1395 12.5549 15.2955C12.7146 15.4516 12.8043 15.6633 12.8043 15.8839V16.7132H12.0215C11.9745 16.7132 11.9236 16.7132 11.8747 16.7132H0.850357C0.738733 16.7133 0.628178 16.6919 0.525014 16.6503C0.421849 16.6086 0.328099 16.5475 0.249123 16.4704C0.170147 16.3933 0.107495 16.3017 0.0647487 16.2009C0.0220023 16.1001 3.47969e-08 15.9921 1.08875e-07 15.883V5.95109C-6.35901e-05 5.82825 0.0278245 5.70694 0.0816444 5.59594C0.135464 5.48494 0.213869 5.38703 0.311178 5.3093L5.82236 0.224751C5.97966 0.0803694 6.18734 0 6.40312 0C6.61891 0 6.82659 0.0803694 6.98389 0.224751Z" fill="white"/>
<path d="M122.439 16.5181H130V14.7486H126.11C125.841 14.7421 125.572 14.7587 125.306 14.7984V14.7649C125.579 14.5348 125.826 14.2766 126.043 13.9949L129.882 9.29202V8.16244H122.612V9.93189H126.216C126.484 9.93623 126.753 9.92538 127.02 9.89937V9.93189C126.761 10.169 126.52 10.4248 126.299 10.6971L122.444 15.4L122.439 16.5181ZM114.25 16.5181H116.378V12.8644H117.485L119.749 16.5181H122.195L119.161 11.9271V11.8936L121.86 8.16339H119.497L117.435 11.1122H116.378V4.88464H114.25V16.5181ZM110.336 16.5181H112.465V14.4206H110.336V16.5181ZM65.2239 12.3384C65.2239 10.7984 66.364 9.73295 67.7545 9.73295C69.145 9.73295 70.3036 10.7984 70.3036 12.3384C70.3036 13.8945 69.146 14.9438 67.7545 14.9438C66.363 14.9438 65.2239 13.8916 65.2239 12.3384ZM63.0614 12.3384C63.0614 14.9103 65.1564 16.7132 67.7584 16.7132C70.3603 16.7132 72.4554 14.9103 72.4554 12.3384C72.4554 9.78173 70.3603 7.96349 67.7447 7.96349C65.1633 7.96349 63.0682 9.78077 63.0682 12.3384M53.7828 16.5181H55.9111V12.6023C55.9111 11.095 56.8672 9.8659 58.3761 9.8659C59.4525 9.8659 59.7167 10.5545 59.7167 11.5703V16.5181H61.8441V11.1437C61.8441 8.93143 60.7539 7.96541 58.8595 7.96541C57.1333 7.96541 56.1773 9.03091 55.826 9.73486H55.7927C55.8149 9.5389 55.826 9.34189 55.826 9.14472V8.16244H53.7828V16.5181ZM43.9836 16.5181H46.1129V12.6358C46.1129 11.0462 47.0846 9.86207 48.5779 9.86207C49.6543 9.86207 49.9185 10.5507 49.9185 11.5665V16.5181H52.0478V11.1437C52.0478 8.93143 50.9577 7.96541 49.0632 7.96541C47.5876 7.96541 46.519 8.85013 46.0963 9.65261H46.063C46.0974 9.41948 46.1141 9.18418 46.1129 8.94865V4.88464H43.9836V16.5181ZM34.7383 12.3384C34.7383 14.763 36.5486 16.7132 39.3825 16.7132C40.7524 16.7132 42.0979 16.1891 42.9052 15.3531L42.0774 13.8802C41.4404 14.4866 40.4677 14.9457 39.5625 14.9457C37.9195 14.9457 36.897 13.7329 36.897 12.324C36.897 10.8989 37.9195 9.73486 39.496 9.73486C40.324 9.74849 41.1155 10.0708 41.7085 10.6358L42.6645 9.21072C41.8425 8.34225 40.5352 7.96732 39.3786 7.96732C36.5408 7.96732 34.7344 9.96632 34.7344 12.3422M28.0372 11.3102C28.2388 10.2447 29.0099 9.5407 30.099 9.5407C31.055 9.5407 31.7929 10.1959 31.8095 11.3102H28.0372ZM25.7953 12.3384C25.7953 14.7142 27.5724 16.7132 30.4053 16.7132C31.6285 16.7132 32.9701 16.2704 33.8419 15.5176L33.0033 14.0265C32.3183 14.5669 31.4279 14.9438 30.557 14.9438C29.2663 14.9438 28.1262 14.1901 27.9922 12.7315H33.8762C33.9149 12.4655 33.9371 12.1975 33.9427 11.929C33.9427 9.71669 32.6021 7.96349 30.1548 7.96349C27.59 7.96349 25.7963 9.76547 25.7963 12.3384M20.8253 16.5162H22.9713V6.70288H26.8776V4.8856H16.918V6.70288H20.8243L20.8253 16.5162Z" fill="white"/>
<path d="M95.5415 16.5182H97.6708V12.766C97.6708 11.3733 98.3744 9.86596 99.8667 9.86596C100.873 9.86596 101.023 10.6311 101.023 11.5369V16.5182H103.153V12.766C103.153 11.3083 103.873 9.86596 105.332 9.86596C106.304 9.86596 106.506 10.5871 106.506 11.5369V16.5182H108.619V11.1438C108.619 8.94393 107.612 7.96547 105.818 7.96547C104.478 7.96547 103.372 8.81768 102.902 9.6871H102.868C102.517 8.55561 101.678 7.96547 100.387 7.96547C99.0457 7.96547 97.9899 8.91524 97.5877 9.73492H97.5544C97.5766 9.53896 97.5877 9.34195 97.5877 9.14479V8.1625H95.5425L95.5415 16.5182ZM87.0174 12.3384C87.0174 10.7985 88.1564 9.73301 89.5479 9.73301C90.9394 9.73301 92.0921 10.7985 92.0921 12.3384C92.0921 13.8946 90.9345 14.9438 89.5479 14.9438C88.1613 14.9438 87.0174 13.8917 87.0174 12.3384ZM84.8548 12.3384C84.8548 14.9103 86.9499 16.7133 89.5518 16.7133C92.1538 16.7133 94.2489 14.9103 94.2489 12.3384C94.2489 9.78179 92.1538 7.96356 89.5381 7.96356C86.9567 7.96356 84.8617 9.78083 84.8617 12.3384M76.0332 14.6999V6.70294H77.8102C80.1911 6.70294 81.7665 8.0965 81.7665 10.6856C81.7665 13.3073 80.2243 14.7028 77.8102 14.7028L76.0332 14.6999ZM73.8706 16.5172H77.9277C81.5992 16.5172 83.9947 14.3546 83.9947 10.6828C83.9947 7.01092 81.5982 4.88184 77.9277 4.88184H73.8657L73.8706 16.5172Z" fill="white"/>
<path d="M98.1963 24.2797H98.9508V23.5662H98.1963V24.2797ZM98.2326 23.0497H98.9175L98.9782 20.0197H98.1748L98.2326 23.0497ZM95.0464 22.7504C95.0464 22.186 95.4378 21.7939 95.9271 21.7939C96.4164 21.7939 96.799 22.1841 96.799 22.7504C96.799 23.3166 96.4124 23.7068 95.9271 23.7068C95.4417 23.7068 95.0464 23.3242 95.0464 22.7504ZM93.0091 24.2807H93.7919V23.0507H94.3007C94.4358 23.8254 95.0924 24.3534 95.9271 24.3534C96.8548 24.3534 97.5906 23.6934 97.5906 22.7513C97.5906 21.8092 96.8538 21.1492 95.9202 21.1492C95.1041 21.1492 94.4475 21.6705 94.3056 22.4328H93.7909V21.22H93.0081L93.0091 24.2807ZM90.7985 23.7594V22.7857H91.2408C91.6088 22.7857 91.7751 22.9962 91.7751 23.2783C91.7751 23.5605 91.6088 23.7566 91.2535 23.7566L90.7985 23.7594ZM90.0157 24.2807H91.3729C92.1959 24.2807 92.558 23.879 92.558 23.285C92.558 22.6155 92.1157 22.2712 91.3837 22.2712H90.7966V21.2191H90.0137L90.0157 24.2807ZM87.6163 23.7776V22.955H88.1868C88.5244 22.955 88.7025 23.1224 88.7025 23.3692C88.7025 23.616 88.5371 23.7776 88.1868 23.7776H87.6163ZM87.6163 22.4806V21.7155H88.1134C88.4197 21.7155 88.5616 21.8532 88.5616 22.0751C88.5616 22.297 88.4197 22.4768 88.1251 22.4768L87.6163 22.4806ZM86.8335 24.2807H88.3189C88.9765 24.2807 89.4853 24.0052 89.4853 23.3931C89.4898 23.2319 89.4374 23.0742 89.3369 22.9463C89.2364 22.8185 89.0939 22.7283 88.9334 22.6911V22.6844C89.0595 22.6219 89.1649 22.5259 89.2376 22.4075C89.3103 22.289 89.3473 22.1529 89.3444 22.0148C89.3444 21.4983 88.9207 21.2229 88.2876 21.2229H86.8393L86.8335 24.2807ZM83.6659 22.7504C83.6659 22.186 84.0837 21.7939 84.5926 21.7939C85.1014 21.7939 85.5261 22.1841 85.5261 22.7504C85.5261 23.3166 85.1024 23.7068 84.5926 23.7068C84.0828 23.7068 83.6659 23.3242 83.6659 22.7504ZM82.8742 22.7504C82.8742 23.6925 83.6414 24.3524 84.5926 24.3524C85.5437 24.3524 86.3119 23.6925 86.3119 22.7504C86.3119 21.8082 85.5437 21.1483 84.5867 21.1483C83.6297 21.1483 82.8742 21.8178 82.8742 22.7504ZM80.1852 22.8938C80.1852 22.4156 80.5228 22.0722 80.968 22.0722C81.3859 22.0722 81.7352 22.384 81.7352 22.9005C81.7352 23.417 81.3859 23.7221 80.9524 23.7221C80.5189 23.7221 80.1784 23.4161 80.1784 22.8938M79.3867 22.4921C79.3867 23.5777 79.8956 24.3524 80.9827 24.3524C81.9094 24.3524 82.5171 23.7346 82.5171 22.8881C82.5171 22.0416 81.9828 21.484 81.1784 21.484C80.9833 21.4757 80.7889 21.5114 80.6103 21.5884C80.4316 21.6654 80.2734 21.7815 80.148 21.9278H80.1353C80.1666 21.3998 80.516 21.1177 81.0502 20.9025L82.2411 20.4577L82.0073 19.8398L80.9309 20.254C79.7899 20.6863 79.3906 21.3396 79.3906 22.4921M76.4618 22.7504C76.4618 22.186 76.8532 21.7939 77.3425 21.7939C77.8318 21.7939 78.2134 22.1841 78.2134 22.7504C78.2134 23.3166 77.822 23.7068 77.3425 23.7068C76.863 23.7068 76.4618 23.3242 76.4618 22.7504ZM74.4245 24.2807H75.2073V23.0507H75.7172C75.8522 23.8254 76.5088 24.3534 77.3445 24.3534C78.2712 24.3534 79.008 23.6934 79.008 22.7513C79.008 21.8092 78.2712 21.1492 77.3376 21.1492C76.5215 21.1492 75.8698 21.6705 75.723 22.4328H75.2073V21.22H74.4245V24.2807ZM70.7716 24.3113C71.8088 24.2807 72.1709 23.5127 72.1709 22.1813V21.8389H72.9322V24.2807H73.715V21.22H71.4341V22.1765C71.4341 23.2621 71.164 23.5806 70.7774 23.6341L70.7716 24.3113ZM65.9767 22.7513C65.9767 23.6389 66.6402 24.3534 67.6774 24.3534C68.1814 24.3534 68.6726 24.1621 68.9671 23.8551L68.6657 23.3147C68.4186 23.5513 68.0906 23.6903 67.7449 23.7049C67.6154 23.7087 67.4864 23.6866 67.3659 23.6399C67.2454 23.5932 67.1359 23.5229 67.0442 23.4333C66.9526 23.3437 66.8806 23.2367 66.8329 23.119C66.7851 23.0012 66.7625 22.8751 66.7664 22.7484C66.7664 22.2272 67.1412 21.8006 67.7185 21.8006C68.0218 21.8054 68.3117 21.9235 68.5287 22.1306L68.8791 21.6083C68.5777 21.2908 68.0962 21.1531 67.6755 21.1531C66.6382 21.1531 65.9747 21.8848 65.9747 22.7551M59.941 24.2855H60.6896L60.8002 22.6298C60.8129 22.4261 60.7943 22.1076 60.7943 22.1076H60.8061C60.8061 22.1076 60.9108 22.3477 61.0018 22.5581L61.6153 23.9019H62.2602L62.8737 22.5514C62.9716 22.3353 63.0587 22.1076 63.0587 22.1076H63.0704C63.0704 22.1076 63.0587 22.4261 63.0645 22.6298L63.1741 24.2855H63.9237L63.6409 21.2248H62.769L62.0938 22.803C62.0263 22.977 61.9402 23.1932 61.9402 23.1932H61.9284C61.9284 23.1932 61.8492 22.9713 61.7748 22.803L61.1123 21.2248H60.2316L59.941 24.2855ZM57.3919 22.3716C57.4653 21.9823 57.7481 21.7241 58.1464 21.7241C58.4967 21.7241 58.7668 21.9641 58.7726 22.3716H57.3919ZM56.5689 22.7542C56.5689 23.6236 57.2197 24.3563 58.2569 24.3563C58.7167 24.3549 59.1618 24.1978 59.5163 23.9115L59.2091 23.3654C58.9568 23.5715 58.6414 23.6897 58.3127 23.7011C57.8401 23.7011 57.4222 23.4247 57.3733 22.891H59.5261C59.5401 22.7936 59.5483 22.6956 59.5506 22.5973C59.5506 21.7872 59.0613 21.1454 58.163 21.1454C57.2236 21.1454 56.567 21.8054 56.567 22.7475M54.1206 23.3654C54.1206 22.933 54.7841 22.8795 55.1765 22.8795H55.3125V22.9636C55.3125 23.3357 55.0297 23.7671 54.5942 23.7671C54.2811 23.7671 54.1206 23.5691 54.1206 23.3654ZM53.3476 23.4314C53.3476 23.989 53.8143 24.3496 54.379 24.3496C54.5786 24.3496 54.7748 24.2987 54.9481 24.2019C55.1215 24.1051 55.2659 23.9658 55.3673 23.7977H55.3859C55.3733 23.871 55.3671 23.9452 55.3673 24.0196V24.2769H56.0914V22.3639C56.0914 21.5902 55.6021 21.1464 54.7899 21.1464C54.3232 21.1464 53.8202 21.3204 53.5619 21.5242L53.8505 22.0703C54.1054 21.8909 54.4086 21.7888 54.7224 21.7767C55.0483 21.7767 55.3096 21.9135 55.3096 22.3161V22.3582H55.1745C54.4807 22.3582 53.3515 22.5141 53.3515 23.4323M49.9383 24.3084C50.9756 24.2778 51.3376 23.5098 51.3376 22.1784V21.836H52.0989V24.2778H52.8818V21.2171H50.5959V22.1736C50.5959 23.2592 50.3258 23.5777 49.9393 23.6313L49.9383 24.3084ZM47.5458 22.3716C47.6192 21.9823 47.901 21.7241 48.3002 21.7241C48.6505 21.7241 48.9206 21.9641 48.9265 22.3716H47.5458ZM46.7228 22.7542C46.7228 23.6236 47.3735 24.3563 48.4108 24.3563C48.8703 24.355 49.3151 24.1978 49.6692 23.9115L49.3619 23.3654C49.1097 23.5717 48.7943 23.6898 48.4656 23.7011C47.993 23.7011 47.5761 23.4247 47.5272 22.891H49.68C49.6948 22.7937 49.7033 22.6956 49.7054 22.5973C49.7054 21.7872 49.2161 21.1454 48.3178 21.1454C47.3784 21.1454 46.7218 21.8054 46.7218 22.7475M42.9583 23.6686V25H43.6825V24.2797H45.8069V25H46.5124V23.6686H46.0642V21.22H43.7578V21.8561C43.7578 22.384 43.6834 23.176 43.34 23.6733L42.9583 23.6686ZM44.1248 23.6686C44.4496 23.1396 44.5054 22.4376 44.5054 21.9756V21.8322H45.2883V23.6686H44.1248ZM38.9463 22.3716C39.0197 21.9823 39.3015 21.7241 39.7007 21.7241C40.0511 21.7241 40.3211 21.9641 40.327 22.3716H38.9463ZM38.1233 22.7542C38.1233 23.6236 38.7741 24.3563 39.8113 24.3563C40.2705 24.3547 40.7149 24.1975 41.0688 23.9115L40.7625 23.3654C40.51 23.5713 40.1947 23.6894 39.8661 23.7011C39.3935 23.7011 38.9756 23.4247 38.9267 22.891H41.0795C41.0935 22.7936 41.1017 22.6956 41.104 22.5973C41.104 21.7872 40.6147 21.1454 39.7164 21.1454C38.777 21.1454 38.1204 21.8054 38.1204 22.7475M34.947 22.7475C34.947 23.6351 35.6094 24.3496 36.6477 24.3496C37.1507 24.3496 37.6419 24.1583 37.9364 23.8512L37.635 23.3108C37.3881 23.5473 37.0605 23.6863 36.7152 23.7011C36.5856 23.7049 36.4566 23.6828 36.3361 23.6361C36.2156 23.5894 36.1062 23.5191 36.0145 23.4295C35.9229 23.3399 35.8509 23.2329 35.8031 23.1151C35.7553 22.9974 35.7327 22.8713 35.7367 22.7446C35.7367 22.2233 36.1114 21.7968 36.6878 21.7968C36.9911 21.8014 37.2811 21.9195 37.498 22.1267L37.8484 21.6045C37.5479 21.287 37.0655 21.1492 36.6457 21.1492C35.6075 21.1492 34.945 21.8809 34.945 22.7513M32.2746 23.6121V22.3812H33.122C33.2062 22.3746 33.2908 22.3859 33.3702 22.4143C33.4495 22.4427 33.5216 22.4875 33.5816 22.5456C33.6417 22.6037 33.6881 22.6738 33.7179 22.751C33.7477 22.8283 33.76 22.9109 33.7541 22.9933C33.7541 23.3529 33.5271 23.6112 33.122 23.6112L32.2746 23.6121ZM32.2746 21.7585V20.6863H33.029C33.3921 20.6863 33.5819 20.9082 33.5819 21.2143C33.5819 21.5203 33.3862 21.7604 33.0417 21.7604L32.2746 21.7585ZM31.4829 24.2778H33.0603C33.8647 24.2778 34.5644 23.8952 34.5644 23.0421C34.5644 22.6107 34.3373 22.1813 33.8578 22.0397V22.0282C34.023 21.9381 34.1596 21.8053 34.2528 21.6443C34.346 21.4834 34.3922 21.3006 34.3863 21.1158C34.3863 20.4137 33.8275 20.0177 33.0359 20.0177H31.4868L31.4829 24.2778Z" fill="white"/>
</g>
<defs>
<clipPath id="clip0_1_21">
<rect width="130" height="25" fill="white"/>
</clipPath>
</defs>
</svg>
